<svg width="13" height="12" viewBox="0 0 13 12" fill="none" xmlns="http://www.w3.org/2000/svg">
<path fill-rule="evenodd" clip-rule="evenodd" d="M7.53371 0.607185L8.79884 3.13463C8.92283 3.38275 9.16216 3.5548 9.43969 3.59461L12.2698 4.00199C12.9691 4.10295 13.2473 4.9504 12.7413 5.43599L10.6947 7.40249C10.4936 7.59586 10.4021 7.87385 10.4496 8.14685L10.9326 10.9231C11.0516 11.6099 10.3206 12.1339 9.6956 11.809L7.16606 10.4973C6.91808 10.3686 6.62108 10.3686 6.37238 10.4973L3.84284 11.809C3.21784 12.1339 2.48688 11.6099 2.60654 10.9231L3.08881 8.14685C3.13638 7.87385 3.04483 7.59586 2.84371 7.40249L0.797154 5.43599C0.291101 4.9504 0.569358 4.10295 1.2686 4.00199L4.09875 3.59461C4.37629 3.5548 4.61634 3.38275 4.74033 3.13463L6.00474 0.607185C6.31759 -0.0177434 7.22085 -0.0177434 7.53371 0.607185Z" fill="#FFC14A"/>
</svg>
